<svg id="Layer_1" data-name="Layer 1" xmlns="http://www.w3.org/2000/svg" viewBox="0 0 509.82 370.33"><defs><style>.cls-1{fill:#eba123;}.cls-2{fill:#fff;}.cls-3{fill:#ed2024;}.cls-4{font-size:125.84px;fill:#231f20;font-family:ForteMT, Forte;}.cls-5{letter-spacing:-0.06em;}</style></defs><path d="M377.63,267.48l-2.85.19c-3-1.58-6.87-4.27-9-8.63-2.92-5.82-.13-9.29-2.63-12.15-4.32-4.93-14.86,2.77-30.1.46-11.69-1.75-10.1-6.95-27.75-12-10.47-3-14.67-2.23-18.93-6.44-6.1-6.07-5.09-15.3-4.78-18.16,1.08-9.71,6.66-16.24,17.81-28.92C320,158.31,319,155,325.52,152.33c4.05-1.64,16-5.51,35.33,2.26l.5,6.34c.35,4.53-1.24,9.35-5.25,12a.79.79,0,0,0-.29.24c-.29,0-.62.06-.83.06-.56,0-1.16.08-1.74.12a7.91,7.91,0,0,0-1.7.22c-.74.19-1.36.56-2.09.75a5.82,5.82,0,0,0-2.48.81.76.76,0,0,0-.1.12c-1.64-.48-3.5,1.39-6.11.68-3.41-.87-3.43-4.87-7.13-5.67a6,6,0,0,0-3.33.23c-3.63,1.39-3.31,6.53-5.47,15.76-2.07,8.88-3.91,10.91-2.36,12.49,2.45,2.46,7.47-2,16.66-1.12,9.7.91,12.7,6.68,18.81,4.91,3.89-1.14,3.29-3.67,7.84-6.68,6.35-4.21,16.08-4.89,23.13-2.17Z" transform="translate(-220.91 -68.11)"/><path d="M564.07,197.49v0c.16-.15.28-.29.43-.44,6.09-6.15,19.27-6.62,27.08-1.16,4.32,3,3.75,5.54,7.44,6.68,5.79,1.77,8.63-4,17.84-4.91,8.69-.86,13.48,3.58,15.79,1.12,1.47-1.58-.29-3.61-2.23-12.49-2-9.23-1.77-14.37-5.19-15.76a5.35,5.35,0,0,0-3.15-.23c-3.52.8-3.54,4.8-6.77,5.67-2.48.71-4.26-1.16-5.79-.68a.34.34,0,0,0-.12-.12c-.61-.59-1.57-.59-2.36-.81s-1.27-.56-2-.75a7.26,7.26,0,0,0-1.61-.22c-.55,0-1.12-.1-1.64-.12-.2,0-.52-.06-.81-.06a.82.82,0,0,0-.25-.24c-3.81-2.67-5.32-7.49-5-12l.47-6.34c18.39-7.77,29.67-3.9,33.52-2.26,6.22,2.66,5.2,6,24.8,29.49,10.58,12.68,15.87,19.21,16.88,28.92.29,2.86,1.25,12.09-4.54,18.16-4,4.21-8,3.45-17.93,6.44-16.74,5.06-15.25,10.26-26.32,12-14.46,2.31-24.45-5.39-28.55-.46-2.39,2.86.28,6.33-2.49,12.15a20.2,20.2,0,0,1-8.59,8.63l-2.28-.16Z" transform="translate(-220.91 -68.11)"/><path class="cls-1" d="M588.82,267.51A270,270,0,0,1,590,295.24a8.14,8.14,0,0,1-7,7.93q-201.22,29.31-216-10.5-3.81-10.29,4.83-25.19v0l8.59-61.1a37.69,37.69,0,0,1,1.77-12.55s0,0,0-.05v-.06s0,0,0,0c4.87-15.33,14.5-16.73,33.16-33.11h0a209,209,0,0,0,18.22-18.29c17.63-19.9,14.93-23,22.85-26.66,17.84-8.17,44.55,1.77,68.62,21,19.72,15.71,37.66,37.64,47.52,60.89v0Z" transform="translate(-220.91 -68.11)"/><path class="cls-2" d="M409.6,197.54a4.78,4.78,0,0,1,.81-7.41,44.62,44.62,0,0,1,50.85,2.08,51.75,51.75,0,0,1-23.08,12c-5,1.11-11,2.44-18.07,0A27.3,27.3,0,0,1,409.6,197.54Z" transform="translate(-220.91 -68.11)"/><circle cx="213.7" cy="126.5" r="7.62"/><path class="cls-2" d="M539.57,197.54a4.77,4.77,0,0,0-.81-7.41,44.62,44.62,0,0,0-50.85,2.08,51.74,51.74,0,0,0,23.09,12c5,1.11,11,2.44,18.06,0A27.22,27.22,0,0,0,539.57,197.54Z" transform="translate(-220.91 -68.11)"/><circle cx="293.66" cy="126.5" r="7.62"/><path d="M519.75,259.35a50.12,50.12,0,0,1-6.44,14c-.24.4-.53.82-.83,1.24-.77,1.08-1.6,2.17-2.52,3.25-.72.84-1.46,1.66-2.23,2.46A49.12,49.12,0,0,1,501,286a50.37,50.37,0,0,1-23.64,9.18c-.71.09-1.41.17-2.12.21-1.14.09-2.28.13-3.44.13a45.93,45.93,0,0,1-5.35-.3A49.63,49.63,0,0,1,443,286a51,51,0,0,1-6.64-5.71L436,280a20.12,20.12,0,0,1-5.18-5.42,18.61,18.61,0,0,1-2.43-5.45,19.39,19.39,0,0,1,0-9.78Z" transform="translate(-220.91 -68.11)"/><path class="cls-3" d="M487.51,286c-1.61,3.39-6.53,7-10.12,9.18-.71.09-1.41.17-2.12.21,1.11-2.72-9.16-5.24-11.86-9.39a3.43,3.43,0,0,1-.51-2.95c3.58-12.3,3.82-5.69,11.44-5.65,7.37,0,7.65-5.7,13.31,4.81A4.06,4.06,0,0,1,487.51,286Z" transform="translate(-220.91 -68.11)"/><path class="cls-2" d="M520.28,259.35a53.84,53.84,0,0,1-7.8,15.23H430.85a18.61,18.61,0,0,1-2.43-5.45,19.39,19.39,0,0,1,0-9.78Z" transform="translate(-220.91 -68.11)"/><path class="cls-2" d="M501,286a50.37,50.37,0,0,1-23.64,9.18c-.71.09-1.41.17-2.12.21-1.14.09-2.28.13-3.44.13a45.93,45.93,0,0,1-5.35-.3A49.63,49.63,0,0,1,443,286Z" transform="translate(-220.91 -68.11)"/><path d="M587.42,115.58c.57,2.53-17.79,9-46.33,16.77-17.89,4.88-39.76,10.3-63.49,15.6-22.91,5.13-44.3,9.43-62.18,12.61-30.2,5.35-50.38,7.48-51,4.9s18.05-9.07,46.94-16.94l-.09-.37a65.69,65.69,0,0,1,128.21-28.68l.1.47C568.05,115,586.86,113.09,587.42,115.58Z" transform="translate(-220.91 -68.11)"/><path d="M404.14,181.14c2.86-1.21,14.63-5.92,31.73-5.54a77.14,77.14,0,0,1,25.39,4.62" transform="translate(-220.91 -68.11)"/><path d="M543.13,181.14c-2.86-1.21-14.63-5.92-31.73-5.54A77.14,77.14,0,0,0,486,180.22" transform="translate(-220.91 -68.11)"/><path d="M470.7,211.45c-9.9,12.17-13.74,23.5-9.81,28.14,3.23,3.8,12.27,3.77,15.35-.06,2.14-2.67.42-6,.19-13.46a53.42,53.42,0,0,1,1.83-15.6" transform="translate(-220.91 -68.11)"/><text class="cls-4" transform="translate(0 343.41)"><tspan class="cls-5">P</tspan><tspan x="67.22" y="0">ot </tspan><tspan class="cls-1" x="212.17" y="0">Chips</tspan></text></svg>