<svg id="Layer_1" data-name="Layer 1" xmlns="http://www.w3.org/2000/svg" viewBox="0 0 841.27 333.16"><defs><style>.cls-1,.cls-2,.cls-3,.cls-4,.cls-6{fill:#846414;}.cls-2,.cls-3,.cls-4,.cls-5{stroke:#000;stroke-miterlimit:10;}.cls-2{stroke-width:0.42px;}.cls-3{stroke-width:2.05px;}.cls-4,.cls-5{stroke-width:1.95px;}.cls-5{fill:none;}.cls-6{font-size:134.14px;font-family:Impact;}.cls-7{letter-spacing:-0.01em;}</style></defs><polygon class="cls-1" points="317.13 294.9 300.38 294.9 293.68 75.48 322.16 75.48 317.13 294.9"/><path class="cls-2" d="M429.55,226.29l26.82-59.09,27.84,58.29a2.32,2.32,0,0,1-1.85,3.68l-51.05.42A2.11,2.11,0,0,1,429.55,226.29Z" transform="translate(-149 -153.68)"/><circle class="cls-3" cx="141.99" cy="200.5" r="107.91"/><circle class="cls-4" cx="141.99" cy="201.18" r="17.49"/><line class="cls-5" x1="140.62" y1="308.42" x2="140.62" y2="308.4"/><line class="cls-5" x1="140.62" y1="92.6" x2="140.62" y2="92.59"/><line class="cls-5" x1="159.47" y1="200.5" x2="158.1" y2="200.5"/><line class="cls-5" x1="34.07" y1="200.5" x2="32.71" y2="200.5"/><line class="cls-5" x1="127.31" y1="212.51" x2="61.58" y2="273.97"/><line class="cls-5" x1="219.22" y1="126.59" x2="152.83" y2="188.66"/><line class="cls-5" x1="219.4" y1="274.24" x2="153.73" y2="212.77"/><line class="cls-5" x1="128.2" y1="188.86" x2="61.86" y2="126.75"/><path d="M149,204.09c42.15-15.77,99.57-34.63,141.72-50.41,52,9.31,88.83,21.71,140.89,31L322.75,258.39Z" transform="translate(-149 -153.68)"/><path d="M216.44,224.7c-.09,16.89-.9,38.77-1,55.66a110.78,110.78,0,0,0,37,17.84,130.44,130.44,0,0,0,18.88,3.37c17.2,2.17,32.15,4.06,48.35,1,9.16-1.71,26.91-7.1,45.34-22.4-.26-16.2-3-32.77-3.26-49C312.43,230.36,265.74,225.56,216.44,224.7Z" transform="translate(-149 -153.68)"/><path d="M305.69,195.55a14.79,14.79,0,0,1-6.77,12.26,13.52,13.52,0,0,1-7.71,2.22c-6.42-.23-14.48-5.65-14.48-14.48a14.48,14.48,0,0,1,29,0Z" transform="translate(-149 -153.68)"/><path d="M307,211.84" transform="translate(-149 -153.68)"/><path d="M297.5,206.25c.17.59.75,2.19,5.47,4.9a42,42,0,0,0,10.52,4.27c11.84,2.93,17.75,4.39,23.23,5,6.24.68,6.83.24,14.73,1.16,7.27.85,10.91,1.28,12.71,2.14,7.06,3.36,9.36,10.28,13.68,20.76a7.83,7.83,0,0,1,.46,3.82c-.18,1.48-.2,5.06.13,3.45a9.56,9.56,0,0,0,.64,4.71c.88,2,3.93,3,4.19,4.13a10.16,10.16,0,0,1-2.78,2.88c-2.14,1.23-3.29,1.39-4.17,2.59-2.23,3-3,8.94-2.26,16.32,1.58,15.78.59,17,3.39,24,.82,2.06,3.4,7,9.7,7,4.12,0,6.74-2,7.36-3,1.76-2.75,2.29-2.64,1.94-12.54-.69-19.64-.89-14.5-.13-19.26.52-3.23-.95-10.67-3.68-13-1.69-1.44-5.95-3.51-6.46-5.05-.66-1.95,2.47-2.63,2.84-5.91.29-2.58.92-2.39.45-5.27-.74-4.59-1.69-7.49-1.94-11.63-.27-4.68-1.29-11.78-4.65-22.11-47.23-3.19-64.45-9.15-70.2-14.74-1-.95-4.89-5.06-8.92-4.27C299.92,197.41,296.42,202.51,297.5,206.25Z" transform="translate(-149 -153.68)"/><text class="cls-6" transform="translate(401.91 127.85)">SCHOOL <tspan x="0" y="160.97">AD</tspan><tspan class="cls-7" x="142.26" y="160.97">W</tspan><tspan x="250.21" y="160.97">A</tspan></text></svg>