<svg id="Layer_1" data-name="Layer 1" xmlns="http://www.w3.org/2000/svg" viewBox="0 0 1678.07 1035.77"><defs><style>.cls-1{fill:none;}.cls-1,.cls-2{stroke:#000;stroke-miterlimit:10;stroke-width:58.1px;}.cls-2{fill:#754c24;}.cls-3{font-size:523.36px;}.cls-3,.cls-4,.cls-5{font-family:Impact;}.cls-4{font-size:523.36px;}.cls-5{font-size:139.86px;}</style></defs><polyline class="cls-1" points="693.11 358.39 797.55 456.43 911.95 367.14"/><line class="cls-2" x1="782.71" y1="129.83" x2="443.21" y2="840.33"/><line class="cls-2" x1="1152.01" y1="840.33" x2="812.51" y2="129.83"/><line class="cls-2" x1="840.09" y1="124.84" x2="755.95" y2="123.79"/><path d="M1041.89,157.14V145c0-10.67,7.95-19.32,17.76-19.32h7.87c9.81,0,17.76,8.65,17.76,19.32v12.15Z" transform="translate(-234.99 -125.67)"/><path d="M1071.86,146.12H986.45c-10.27,0-18.63,9.09-18.63,20.27v42.87c0,11.18,8.36,20.27,18.63,20.27h85.41c10.27,0,18.63-9.09,18.63-20.27V166.39C1090.49,155.21,1082.13,146.12,1071.86,146.12ZM1067.49,192c-8.47,0-15.33-7.47-15.33-16.69s6.86-16.68,15.33-16.68,15.33,7.47,15.33,16.68S1076,192,1067.49,192Z" transform="translate(-234.99 -125.67)"/><path d="M975.35,187h-6.51a5.31,5.31,0,0,1-5.07-5.51h0a5.31,5.31,0,0,1,5.07-5.51h6.51Z" transform="translate(-234.99 -125.67)"/><text class="cls-3" transform="translate(0 855.37)">FR</text><text class="cls-4" transform="translate(1104.88 855.39)">NC</text><text class="cls-5" transform="translate(1132.57 989.54)">PICTURES</text></svg>