<svg id="Layer_1" data-name="Layer 1" xmlns="http://www.w3.org/2000/svg" viewBox="0 0 1500 1500"><defs><style>.cls-1{fill:#fff;}.cls-2{font-size:303.65px;}.cls-2,.cls-3{fill:#142c35;}.cls-2,.cls-3,.cls-6{font-family:JavaneseText, Javanese Text;}.cls-3{font-size:296.79px;}.cls-4,.cls-6{fill:#29abe2;}.cls-5{fill:#42210b;}.cls-6{font-size:116px;}.cls-7{letter-spacing:-0.06em;}.cls-8{fill:#000;}</style></defs><rect class="cls-1" width="1500" height="1500"/><text class="cls-2" transform="translate(228.08 828.29)">G</text><text class="cls-3" transform="translate(575.56 826.9)">HON</text><path d="M526.14,788.23v40.91H492.66v-49c10.07,1.75,18.35,5.88,23,6.55Z" transform="translate(0 -0.83)"/><path d="M529,621.67v0a7,7,0,0,1-5.7-2.08,6.93,6.93,0,0,1-2-4.08h-.06a7,7,0,0,1-5.18-2.27,6.76,6.76,0,0,1-1.87.26,6.92,6.92,0,0,1-3.52-1l0,0s0,0,0,0h0a6.91,6.91,0,0,1-1.41,2,7,7,0,0,1-9.51.35,7,7,0,0,1-7,6.78,7,7,0,0,1-1.94-.28,6.86,6.86,0,0,1,.37,2.23,7,7,0,0,1-4.65,6.62,24.68,24.68,0,0,0,49.26-1.55A7,7,0,0,1,529,621.67Z" transform="translate(0 -0.83)"/><path class="cls-4" d="M526.14,661.78V788.23l-10.48-1.5c-4.65-.67-12.93-4.8-23-6.55V661.78Z" transform="translate(0 -0.83)"/><path class="cls-4" d="M480.27,719.27c7-19.33,6.8-39.3,12.39-57.49v118.4a48.43,48.43,0,0,0-11.84-.67c-15.92,1.15-28.92,10.71-37.13,13.91C454,770,470.59,746,480.27,719.27Z" transform="translate(0 -0.83)"/><path class="cls-4" d="M555.83,791.75c-8.66-.54-13.54-1.2-29.69-3.52V661.78c3.55,20.35,12.26,35.51,18,46,16.07,29.3,20.74,42.26,28.39,60.51C573.87,771.43,582.68,793.42,555.83,791.75Z" transform="translate(0 -0.83)"/><path class="cls-5" d="M501.22,606.79a7.08,7.08,0,0,1-2,5,7.7,7.7,0,0,1-1.13.92,7.06,7.06,0,0,1-3.88,1.16,6.85,6.85,0,0,1-2.4-.43,6.75,6.75,0,0,1-1.5-.74h0a7,7,0,0,1-2.35-2.63,5.92,5.92,0,0,1-.38-.9h0a3.58,3.58,0,0,1-.11-.35,6.89,6.89,0,0,1-.29-2,7,7,0,0,1,1.45-4.26,6.94,6.94,0,0,1,5.32-2.77h.27a6.93,6.93,0,0,1,2.1.32,7,7,0,0,1,4.36,3.9l0,0,.15.39h0a6.54,6.54,0,0,1,.37,1.6A5.16,5.16,0,0,1,501.22,606.79Z" transform="translate(0 -0.83)"/><path class="cls-4" d="M491.35,624a7,7,0,0,1-4.65,6.62l1.21-10a3.47,3.47,0,0,0,.37-.3,6.87,6.87,0,0,0,2.7,1.48A6.86,6.86,0,0,1,491.35,624Z" transform="translate(0 -0.83)"/><path class="cls-4" d="M478.58,619.9a7,7,0,0,0,5.05,2.14,6.94,6.94,0,0,0,4.28-1.46l-1.21,10Z" transform="translate(0 -0.83)"/><path class="cls-5" d="M489.36,619.08a6.18,6.18,0,0,1-1.08,1.2,3.47,3.47,0,0,1-.37.3,6.94,6.94,0,0,1-4.28,1.46,7,7,0,0,1-5.05-2.14,7,7,0,0,1,5.73-3,6.55,6.55,0,0,1,1.94.28,6.77,6.77,0,0,1,2.47,1.28A7,7,0,0,1,489.36,619.08Z" transform="translate(0 -0.83)"/><path class="cls-4" d="M500,615.25h0a7,7,0,0,1-7,6.78,7,7,0,0,1-1.94-.28,6.87,6.87,0,0,0-1.62-2.68,7,7,0,0,0,1.32-4.09v-.07c.34-.52.7-1,1.09-1.51a6.85,6.85,0,0,0,2.4.43,7.06,7.06,0,0,0,3.88-1.16,6.84,6.84,0,0,0,1.45,2.16A4.36,4.36,0,0,0,500,615.25Z" transform="translate(0 -0.83)"/><path class="cls-4" d="M491,621.76a6.87,6.87,0,0,1-2.7-1.48,6.18,6.18,0,0,0,1.08-1.2A6.87,6.87,0,0,1,491,621.76Z" transform="translate(0 -0.83)"/><path class="cls-5" d="M499.18,611.76a7.7,7.7,0,0,1-1.13.92,7.06,7.06,0,0,1-3.88,1.16,6.85,6.85,0,0,1-2.4-.43c-.39.49-.75,1-1.09,1.51V615a7,7,0,0,1-1.32,4.09,6.18,6.18,0,0,1-1.08,1.2l-.21-.19a7.11,7.11,0,0,1-2.19-5.1,7,7,0,0,1,2-5,3.7,3.7,0,0,1,.36-.33,7,7,0,0,1,8.09-.85,5.65,5.65,0,0,1,1.11.77A6.83,6.83,0,0,1,499.18,611.76Z" transform="translate(0 -0.83)"/><path class="cls-5" d="M510.9,612.87l0,0-.06,0S510.9,612.89,510.9,612.87Z" transform="translate(0 -0.83)"/><path class="cls-5" d="M514.46,606.79a6.69,6.69,0,0,1-.26,1.86h0a7.2,7.2,0,0,1-2.67.51,7,7,0,0,1-4-1.3,6.5,6.5,0,0,1-.95-.8,7.06,7.06,0,0,1-1.56-2.43,22.81,22.81,0,0,0-3.82,1.36,5.16,5.16,0,0,1,.05.79,7.08,7.08,0,0,1-.42,2.4,6.85,6.85,0,0,1-.43-2.4,3.1,3.1,0,0,1,0-.43,6.12,6.12,0,0,1,.41-2h0A3.34,3.34,0,0,1,501,604l.09-.19a7,7,0,0,1,3.72-3.5,6.89,6.89,0,0,1,1.27-.38,6.31,6.31,0,0,1,.76-.1h0a5.83,5.83,0,0,1,.59,0,7.05,7.05,0,0,1,6.4,4.1.61.61,0,0,1,.05.12A6.82,6.82,0,0,1,514.46,606.79Z" transform="translate(0 -0.83)"/><circle class="cls-5" cx="500.36" cy="596.1" r="7.05"/><circle class="cls-5" cx="512.46" cy="596.1" r="7.05"/><circle class="cls-5" cx="483.63" cy="602.02" r="7.05"/><path class="cls-5" d="M490.68,614.92V615a7,7,0,0,1-1.32,4.09,6.18,6.18,0,0,1-1.08,1.2,3.47,3.47,0,0,1-.37.3,6.94,6.94,0,0,1-4.28,1.46,7,7,0,0,1-3.56-13.12,7,7,0,0,1,7.12,0,2.39,2.39,0,0,1,.34.21h0a8.09,8.09,0,0,1,.74.57,6.85,6.85,0,0,1,2,3h0A6.75,6.75,0,0,1,490.68,614.92Z" transform="translate(0 -0.83)"/><circle class="cls-5" cx="490.67" cy="594.97" r="7.05"/><circle class="cls-5" cx="498.4" cy="587.92" r="7.05"/><path class="cls-5" d="M539.1,611.62a6.93,6.93,0,0,1-1,3.62,6.14,6.14,0,0,1-.7,1,2.75,2.75,0,0,1-.22-.26,7.7,7.7,0,0,1-.54.6,7.11,7.11,0,0,1-1.58,1.17,6.46,6.46,0,0,1-1.31.54,23.31,23.31,0,0,0-1.15-2.22,24.48,24.48,0,0,0-4-5.12l-.3-.28a24.48,24.48,0,0,0-2.53-2.12h0s0,0,0,0a.08.08,0,0,1,0,0,6.84,6.84,0,0,1,1.15-1.66,7.4,7.4,0,0,1,1.89-1.46,2.11,2.11,0,0,1,.34-.16,6.64,6.64,0,0,1,2.67-.64h.27a6.88,6.88,0,0,1,1.29.12h0a1.87,1.87,0,0,1,.34.08,4.29,4.29,0,0,1,.86.27,6.24,6.24,0,0,1,1.81,1,5.36,5.36,0,0,1,.92.86,6.51,6.51,0,0,1,1,1.44h0a2.17,2.17,0,0,1,.19.41A6.82,6.82,0,0,1,539.1,611.62Z" transform="translate(0 -0.83)"/><path class="cls-4" d="M516.33,613.58a6.76,6.76,0,0,1-1.87.26,6.92,6.92,0,0,1-3.52-1,6.92,6.92,0,0,0,3.26-4.23h0a1.39,1.39,0,0,0,.28-.12,1.32,1.32,0,0,0,0,.28A7,7,0,0,0,516.33,613.58Z" transform="translate(0 -0.83)"/><path class="cls-4" d="M514.2,608.66a6.92,6.92,0,0,1-3.26,4.23l0,0a7,7,0,0,0,.63-3.7A7.2,7.2,0,0,0,514.2,608.66Z" transform="translate(0 -0.83)"/><path class="cls-5" d="M521.46,606a21.9,21.9,0,0,0-3.37-1.24,7,7,0,0,1-1.58,2.35,6.56,6.56,0,0,1-1.34,1,4.52,4.52,0,0,1-.69.36,1.39,1.39,0,0,1-.28.12h0a7.2,7.2,0,0,1-2.67.51,7,7,0,0,1-4-1.3,6.38,6.38,0,0,1-.09-1.08,7.08,7.08,0,0,1,.55-2.73l.11-.24a5.82,5.82,0,0,1,.56-1,6.8,6.8,0,0,1,2.31-2.15,6.63,6.63,0,0,1,2.52-.87,5.55,5.55,0,0,1,1-.08,7,7,0,0,1,3.83,1.14h0a1.88,1.88,0,0,1,.23.16,4.7,4.7,0,0,1,.65.53,3.73,3.73,0,0,1,.45.44,6.55,6.55,0,0,1,1.08,1.52A6.8,6.8,0,0,1,521.46,606Z" transform="translate(0 -0.83)"/><path class="cls-4" d="M536,628.51c0,.18,0,.37,0,.55a7,7,0,0,1-6.73-7v0a7,7,0,0,0,4.27-2,5.28,5.28,0,0,0,.66-.77A24.42,24.42,0,0,1,536,628.51Z" transform="translate(0 -0.83)"/><path class="cls-4" d="M542.41,618.57a7,7,0,0,1-5-2.36,7,7,0,0,1-2.5,1.85h0a5.56,5.56,0,0,1-.73,1.17,24.42,24.42,0,0,1,1.81,9.27c0,.18,0,.37,0,.55Z" transform="translate(0 -0.83)"/><path class="cls-5" d="M530.24,618.42l.18.05-.18,0Z" transform="translate(0 -0.83)"/><path class="cls-4" d="M537.39,616.21a7,7,0,0,1-2.5,1.85,3.54,3.54,0,0,0,.16-.34,7.11,7.11,0,0,0,1.58-1.17,7.7,7.7,0,0,0,.54-.6A2.75,2.75,0,0,0,537.39,616.21Z" transform="translate(0 -0.83)"/><path class="cls-5" d="M542.41,618.57a7,7,0,0,1-5-2.36,2.75,2.75,0,0,1-.22-.26,7.7,7.7,0,0,1-.54.6,7.11,7.11,0,0,1-1.58,1.17,6.46,6.46,0,0,1-1.31.54,23.31,23.31,0,0,0-1.15-2.22,6.77,6.77,0,0,1,3-1,5.07,5.07,0,0,1,.68,0h.24a6.9,6.9,0,0,1,1.21.14,2.42,2.42,0,0,1,.36.1A6.93,6.93,0,0,1,542.41,618.57Z" transform="translate(0 -0.83)"/><path class="cls-5" d="M549.7,611.53a7.05,7.05,0,0,1-7.05,7.05h-.24a7,7,0,0,1-5-2.36,2.75,2.75,0,0,1-.22-.26,6.14,6.14,0,0,1-.65-1,7,7,0,0,1-.24-6.47,6.38,6.38,0,0,1,.83-1.34.22.22,0,0,1,0-.08l.15-.17a7,7,0,0,1,7.3-2.18h0a6.86,6.86,0,0,1,3.57,2.43A7,7,0,0,1,549.7,611.53Z" transform="translate(0 -0.83)"/><circle class="cls-5" cx="538.24" cy="600.93" r="7.05"/><circle class="cls-5" cx="542.65" cy="602.02" r="7.05"/><circle class="cls-5" cx="528.55" cy="599.17" r="7.05"/><path class="cls-4" d="M521.57,615.85h-.06a7,7,0,0,1-5.18-2.27,5.67,5.67,0,0,0,1.15-.43,7,7,0,0,0,4,1.81A5.26,5.26,0,0,0,521.57,615.85Z" transform="translate(0 -0.83)"/><path class="cls-4" d="M517.48,613.15a5.67,5.67,0,0,1-1.15.43,7,7,0,0,1-1.87-4.77,1.32,1.32,0,0,1,0-.28,4.52,4.52,0,0,0,.69-.36,7.05,7.05,0,0,0,2,4.72A1.75,1.75,0,0,0,517.48,613.15Z" transform="translate(0 -0.83)"/><path class="cls-5" d="M528.55,608.81a6.52,6.52,0,0,1-.25,1.83,24.48,24.48,0,0,0-2.53-2.12h0s0,0,0,0a.08.08,0,0,1,0,0l-.31-.22a23.78,23.78,0,0,0-4-2.25,21.9,21.9,0,0,0-3.37-1.24,7,7,0,0,1-1.58,2.35,6.56,6.56,0,0,1-1.34,1,4.52,4.52,0,0,1-.69.36,6.94,6.94,0,0,1,1.61-4.23l.25-.27,0,0a5.38,5.38,0,0,1,.91-.81,6.91,6.91,0,0,1,1.33-.8,6.18,6.18,0,0,1,1-.36,6.88,6.88,0,0,1,1.88-.26h.23a6.72,6.72,0,0,1,2.2.43,7,7,0,0,1,3.86,3.45,2.1,2.1,0,0,1,.13.26,7.17,7.17,0,0,1,.39,1.13,5.3,5.3,0,0,1,.17.9A6.15,6.15,0,0,1,528.55,608.81Z" transform="translate(0 -0.83)"/><circle class="cls-5" cx="531.64" cy="591.55" r="7.05"/><circle class="cls-5" cx="540.81" cy="595.74" r="7.05"/><path class="cls-4" d="M521.51,606.79a7,7,0,0,1-4,6.36,1.75,1.75,0,0,1-.29-.26,7.05,7.05,0,0,1-2-4.72,6.56,6.56,0,0,0,1.34-1,7,7,0,0,0,1.58-2.35,21.9,21.9,0,0,1,3.37,1.24A4.77,4.77,0,0,1,521.51,606.79Z" transform="translate(0 -0.83)"/><path class="cls-4" d="M525.42,608.28c-.09.18-.17.35-.24.53a6.93,6.93,0,0,0-1.57,1.16,7,7,0,0,0-2.1,5,7,7,0,0,1-4-1.81,7,7,0,0,0,4-6.36,4.77,4.77,0,0,0,0-.76A23.78,23.78,0,0,1,525.42,608.28Z" transform="translate(0 -0.83)"/><path class="cls-5" d="M529.26,608a6.93,6.93,0,0,1-.66,2.95l-.3-.28a24.48,24.48,0,0,0-2.53-2.12h0s0,0,0,0a.08.08,0,0,1,0,0l-.31-.22a23.78,23.78,0,0,0-4-2.25,21.9,21.9,0,0,0-3.37-1.24,7,7,0,0,1-1.58,2.35,6.56,6.56,0,0,1-1.34,1,7,7,0,0,1,1-3.86l.17-.28,0,0a5.9,5.9,0,0,1,.72-.88,1.45,1.45,0,0,1,.17-.19,7.38,7.38,0,0,1,1.35-1q.28-.17.57-.3a6.77,6.77,0,0,1,2.4-.66,6.91,6.91,0,0,1,3.24.48,2.6,2.6,0,0,1,.42.19,6.95,6.95,0,0,1,3.37,3.42,1,1,0,0,1,.07.15.85.85,0,0,1,.09.22,6.63,6.63,0,0,1,.42,1.63A6.2,6.2,0,0,1,529.26,608Z" transform="translate(0 -0.83)"/><path class="cls-4" d="M530.24,618.43a6.94,6.94,0,0,0-1,3.58,7,7,0,0,1-5.7-2.08,6.93,6.93,0,0,1-2-4.08,7,7,0,0,0,3.81-1.16,7.09,7.09,0,0,0,1.28,1.79A7,7,0,0,0,530.24,618.43Z" transform="translate(0 -0.83)"/><path class="cls-4" d="M534.16,619.24a5.28,5.28,0,0,1-.66.77,7,7,0,0,1-4.27,2,6.94,6.94,0,0,1,1-3.58l.18,0h0a7,7,0,0,0,3.36-.05C533.94,618.7,534.06,619,534.16,619.24Z" transform="translate(0 -0.83)"/><path class="cls-4" d="M525.21,614.31a7,7,0,0,1-3.7.65,7,7,0,0,1,2.1-5,6.93,6.93,0,0,1,1.57-1.16A7,7,0,0,0,525.21,614.31Z" transform="translate(0 -0.83)"/><path class="cls-4" d="M525.38,614.69a7,7,0,0,1-3.81,1.16,5.26,5.26,0,0,1-.06-.89,7,7,0,0,0,3.7-.65C525.26,614.44,525.32,614.57,525.38,614.69Z" transform="translate(0 -0.83)"/><path class="cls-5" d="M530.24,618.42l.18.05-.18,0Z" transform="translate(0 -0.83)"/><path class="cls-4" d="M533.82,618.43a7,7,0,0,1-3.36.05,7,7,0,0,0,3.28-.22A1.3,1.3,0,0,1,533.82,618.43Z" transform="translate(0 -0.83)"/><path class="cls-4" d="M534.89,618.07a5.56,5.56,0,0,1-.73,1.17c-.1-.27-.22-.54-.34-.81A6.41,6.41,0,0,0,534.89,618.07Z" transform="translate(0 -0.83)"/><path class="cls-4" d="M535.05,617.72a3.54,3.54,0,0,1-.16.34h0a6.41,6.41,0,0,1-1.07.36,1.3,1.3,0,0,0-.08-.17A6.46,6.46,0,0,0,535.05,617.72Z" transform="translate(0 -0.83)"/><path class="cls-5" d="M535.6,615a7.11,7.11,0,0,1-.55,2.69,6.46,6.46,0,0,1-1.31.54,23.31,23.31,0,0,0-1.15-2.22,24.48,24.48,0,0,0-4-5.12l-.3-.28a24.48,24.48,0,0,0-2.53-2.12,6.92,6.92,0,0,1,2.72-.58l.77,0A7,7,0,0,1,535.6,615Z" transform="translate(0 -0.83)"/><path class="cls-4" d="M528.3,610.64a6.61,6.61,0,0,1-1,2.14s0,0,0,0l-.15.16a7.22,7.22,0,0,1-1.67,1.22,6.82,6.82,0,0,1-.49-2.56,6.89,6.89,0,0,1,.71-3.07s0,0,0,0h0A24.48,24.48,0,0,1,528.3,610.64Z" transform="translate(0 -0.83)"/><path class="cls-5" d="M530.24,618.42h0l.18,0Zm7.93-9.61a5.32,5.32,0,0,0-.5-1,5.88,5.88,0,0,0-.51-.72,5.53,5.53,0,0,0-.46-.52l0,0a6.85,6.85,0,0,0-2.17-1.49,5.77,5.77,0,0,0-.79-.29h0a1.78,1.78,0,0,0-.33-.09h0a7.24,7.24,0,0,0-1.6-.21,7.11,7.11,0,0,0-2.93.62.31.31,0,0,0-.13.06,5.91,5.91,0,0,0-.88.49,7.08,7.08,0,0,0-1.07.86,2.4,2.4,0,0,0-.22.24,6.6,6.6,0,0,0-1.09,1.53l.31.22a.08.08,0,0,0,0,0s0,0,0,0h0a24.48,24.48,0,0,1,2.53,2.12l.3.28a24.48,24.48,0,0,1,4,5.12,23.31,23.31,0,0,1,1.15,2.22,6.46,6.46,0,0,0,1.31-.54,7.11,7.11,0,0,0,1.58-1.17,7.7,7.7,0,0,0,.54-.6,6.17,6.17,0,0,0,.56-.81A7,7,0,0,0,538.17,608.81Z" transform="translate(0 -0.83)"/><path class="cls-4" d="M525.73,608.5a.08.08,0,0,0,0,0,3.71,3.71,0,0,0-.53.26c.07-.18.15-.35.24-.53Z" transform="translate(0 -0.83)"/><path class="cls-4" d="M533.74,618.26a7,7,0,0,1-3.28.22h0l-.18-.05a6.86,6.86,0,0,1,2.35-2.38A23.31,23.31,0,0,1,533.74,618.26Z" transform="translate(0 -0.83)"/><path class="cls-4" d="M528.6,610.92a6.58,6.58,0,0,1-1.28,1.86,6.61,6.61,0,0,0,1-2.14Z" transform="translate(0 -0.83)"/><path class="cls-4" d="M525.63,614.51a1.44,1.44,0,0,1-.25.18c-.06-.12-.12-.25-.17-.38l.28-.13A1.56,1.56,0,0,0,525.63,614.51Z" transform="translate(0 -0.83)"/><path class="cls-4" d="M530.24,618.42h0a7,7,0,0,1-3.58-1.95,7.09,7.09,0,0,1-1.28-1.79,1.44,1.44,0,0,0,.25-.18A7,7,0,0,0,530.24,618.42Z" transform="translate(0 -0.83)"/><path class="cls-4" d="M527.31,612.8a6.83,6.83,0,0,1-1.68,1.71,1.56,1.56,0,0,1-.14-.33,7.22,7.22,0,0,0,1.67-1.22Z" transform="translate(0 -0.83)"/><path class="cls-4" d="M532.59,616a6.86,6.86,0,0,0-2.35,2.38,7,7,0,0,1-4.61-3.91,6.83,6.83,0,0,0,1.68-1.71s0,0,0,0a6.58,6.58,0,0,0,1.28-1.86A24.48,24.48,0,0,1,532.59,616Z" transform="translate(0 -0.83)"/><path class="cls-4" d="M525,611.62a6.82,6.82,0,0,0,.49,2.56l-.28.13a7,7,0,0,1,0-5.5,3.71,3.71,0,0,1,.53-.26A6.89,6.89,0,0,0,525,611.62Z" transform="translate(0 -0.83)"/><circle class="cls-5" cx="531.64" cy="597.82" r="7.05"/><circle class="cls-5" cx="519.7" cy="595.74" r="7.05"/><circle class="cls-5" cx="521.51" cy="587.92" r="7.05"/><path class="cls-5" d="M518.61,601.88a4.17,4.17,0,0,1,0,.5,6.11,6.11,0,0,1-.13,1.13,7.08,7.08,0,0,1-2,3.63,6.56,6.56,0,0,1-1.34,1,4.52,4.52,0,0,1-.69.36,1.39,1.39,0,0,1-.28.12h0a7.2,7.2,0,0,1-2.67.51,7,7,0,0,1-4-1.3,6.5,6.5,0,0,1-.95-.8,7.06,7.06,0,0,1-1.56-2.43,6.59,6.59,0,0,1-.43-1.79,2.12,2.12,0,0,1,0-.24h0a6.84,6.84,0,0,1,.24-2.34,6.31,6.31,0,0,1,.79-1.83,6.9,6.9,0,0,1,1.05-1.33,6.54,6.54,0,0,1,.65-.55.31.31,0,0,1,.11-.09,6.54,6.54,0,0,1,2-1h0a6.9,6.9,0,0,1,3.43-.26,5.93,5.93,0,0,1,.83.21.33.33,0,0,1,.14,0s0,0,0,0a7,7,0,0,1,2.81,1.75,6.93,6.93,0,0,1,1.86,3.46,1.86,1.86,0,0,1,.08.41A4.67,4.67,0,0,1,518.61,601.88Z" transform="translate(0 -0.83)"/><path class="cls-4" d="M510.88,612.93a6.91,6.91,0,0,1-1.41,2,7,7,0,0,1-9.51.35h0a2.26,2.26,0,0,0,0-.26,6.92,6.92,0,0,0-.79-3.23,7.11,7.11,0,0,0,1.62-2.57,7,7,0,0,0,10.08,3.74Z" transform="translate(0 -0.83)"/><path class="cls-4" d="M510.9,612.87s0,0,0,0h0a7,7,0,0,1-10.08-3.74,7.08,7.08,0,0,0,.42-2.4,5.16,5.16,0,0,0-.05-.79,22.81,22.81,0,0,1,3.82-1.36,7.06,7.06,0,0,0,1.56,2.43,6.5,6.5,0,0,0,.95.8A7,7,0,0,0,510.9,612.87Z" transform="translate(0 -0.83)"/><path class="cls-4" d="M510.9,612.87a7,7,0,0,1-3.4-5,7,7,0,0,0,4,1.3A7,7,0,0,1,510.9,612.87Z" transform="translate(0 -0.83)"/><path class="cls-4" d="M500,615a2.26,2.26,0,0,1,0,.26,4.36,4.36,0,0,1-.46-.41,6.84,6.84,0,0,1-1.45-2.16,7.7,7.7,0,0,0,1.13-.92A6.92,6.92,0,0,1,500,615Z" transform="translate(0 -0.83)"/><path class="cls-5" d="M511.53,609.17a7,7,0,0,1-4-1.3,6.5,6.5,0,0,1-.95-.8,7.06,7.06,0,0,1-1.56-2.43,22.81,22.81,0,0,0-3.82,1.36,5.16,5.16,0,0,1,.05.79,7.08,7.08,0,0,1-2,5,7.7,7.7,0,0,1-1.13.92,7,7,0,0,1-.57-3.06,6.63,6.63,0,0,1,.3-1.77,7,7,0,0,1,1.8-3,6.79,6.79,0,0,1,1.07-.87l.06,0,.35-.2a6.72,6.72,0,0,1,3.1-.89h0a2.55,2.55,0,0,1,.39,0,7,7,0,0,1,3.51,1,2.48,2.48,0,0,1,.31.18h0a7.34,7.34,0,0,1,1.15,1A7,7,0,0,1,511.53,609.17Z" transform="translate(0 -0.83)"/><circle class="cls-5" cx="509.33" cy="588.98" r="7.05"/><circle class="cls-5" cx="511.57" cy="587.92" r="7.05"/><text class="cls-6" transform="translate(385.09 963.37)"><tspan class="cls-7">F</tspan><tspan x="65.19" y="0">ashion</tspan><tspan class="cls-8" x="388.61" y="0" xml:space="preserve"> Design</tspan></text></svg>